<svg xmlns="http://www.w3.org/2000/svg" viewBox="0 0 640 640">
    <!--!Font Awesome Free v7.0.0 by @fontawesome - https://fontawesome.com License - https://fontawesome.com/license/free Copyright 2025 Fonticons, Inc.-->
    <!-- <path  fill="#1f2937" d="M64 144C64 117.5 85.5 96 112 96L208 96C234.5 96 256 117.5 256 144L256 160L384 160L384 144C384 117.5 405.5 96 432 96L528 96C554.5 96 576 117.5 576 144L576 240C576 266.5 554.5 288 528 288L432 288C405.5 288 384 266.5 384 240L384 224L256 224L256 240C256 247.3 254.3 254.3 251.4 260.5L320 352L400 352C426.5 352 448 373.5 448 400L448 496C448 522.5 426.5 544 400 544L304 544C277.5 544 256 522.5 256 496L256 400C256 392.7 257.7 385.7 260.6 379.5L192 288L112 288C85.5 288 64 266.5 64 240L64 144z"/> -->
    <path  fill="#1f2937" d="M482.4 221.9C517.7 213.6 544 181.9 544 144C544 99.8 508.2 64 464 64C420.6 64 385.3 98.5 384 141.5L200.2 215.1C185.7 200.8 165.9 192 144 192C99.8 192 64 227.8 64 272C64 316.2 99.8 352 144 352C156.2 352 167.8 349.3 178.1 344.4L323.7 471.8C321.3 479.4 320 487.6 320 496C320 540.2 355.8 576 400 576C444.2 576 480 540.2 480 496C480 468.3 466 443.9 444.6 429.6L482.4 221.9zM220.3 296.2C222.5 289.3 223.8 282 224 274.5L407.8 201C411.4 204.5 415.2 207.7 419.4 210.5L381.6 418.1C376.1 419.4 370.8 421.2 365.8 423.6L220.3 296.2z"/>
</svg>